<svg xmlns="http://www.w3.org/2000/svg" width="95" height="102" viewBox="0 0 95 102">
  <defs>
    <style>
      .cls-1 {
        fill: #64bb4a;
      }

      .cls-2 {
        fill: #fff;
      }

      .cls-3 {
        font-size: 35px;
        font-family: PeinaudMedium, Peinaud;
      }
    </style>
  </defs>
  <g id="Group_7" data-name="Group 7" transform="translate(1 0)">
    <g id="Group_3" data-name="Group 3" transform="translate(-197.8 -300.9)">
      <g id="Group_1" data-name="Group 1" transform="translate(206.316 305.853)">
        <path id="Path_1" data-name="Path 1" class="cls-1" d="M1.215,51.456l36.213-5.95S36.14,62,45.081,68.691s28.111,3.561,28.111,3.561l1.071,26.311L17.941,114.946Z" transform="translate(-1.215 -44.777)"/>
        <rect id="Rectangle_1" data-name="Rectangle 1" class="cls-2" width="16.829" height="4.31" rx="2" transform="matrix(0.94, -0.342, 0.342, 0.94, 16.823, 20.52)"/>
        <rect id="Rectangle_2" data-name="Rectangle 2" class="cls-2" width="15.654" height="4.31" rx="2" transform="translate(24.245 38.011) rotate(-43)"/>
        <rect id="Rectangle_3" data-name="Rectangle 3" class="cls-2" width="16.474" height="4.654" rx="2" transform="translate(36.524 47.743) rotate(-54.975)"/>
        <rect id="Rectangle_4" data-name="Rectangle 4" class="cls-2" width="15.654" height="3.788" rx="1.894" transform="translate(53.476 54.962) rotate(-75.992)"/>
        <path id="Path_2" data-name="Path 2" class="cls-2" d="M16.714,0a.408.408,0,0,1,.408.408V3.9a.408.408,0,0,1-.408.408H.293c-.227,0-.293-.1-.293-.1L8.957.333Z" transform="translate(16.831 0) rotate(14)"/>
      </g>
      <path id="Path_3" data-name="Path 3" class="cls-2" d="M35.234,31.9l1.334,32.685a75.91,75.91,0,0,1-11.119,1.4C11.394,65.987,0,56.89,0,45.668,0,44.163.091,42,.249,40.625s.507-3.043.507-3.043Z" transform="translate(241.757 269)"/>
      <path id="Path_4" data-name="Path 4" class="cls-1" d="M7.756,0c4.413,0,7.7,5.836,7.7,5.836L0,5.916S3.342,0,7.756,0Z" transform="matrix(0.695, -0.719, 0.719, 0.695, 251.853, 312.254)"/>
      <path id="Path_5" data-name="Path 5" class="cls-1" d="M3.387,0l6.14,8.039s-2.716,5.217-4.89,7.431A15.956,15.956,0,0,1,0,18.716Z" transform="translate(274.481 304.852) rotate(35.025)"/>
    </g>
    <text id="enersun" class="cls-3" transform="translate(-1 62)"><tspan x="0" y="31">enersun</tspan></text>
  </g>
</svg>
