<svg id="logo-landing-enersun" xmlns="http://www.w3.org/2000/svg" width="194.349" height="54.571" viewBox="0 0 194.349 54.571">
  <g id="Group_3" data-name="Group 3" transform="translate(0 0)">
    <g id="Group_1" data-name="Group 1" transform="translate(0 3.598)">
      <path id="Path_1" data-name="Path 1" d="M1.215,49.828,27.52,45.506s-.936,11.985,5.56,16.842S53.5,64.935,53.5,64.935l.778,19.113-40.914,11.9Z" transform="translate(-1.215 -44.976)" fill="#64bb4a"/>
      <rect id="Rectangle_1" data-name="Rectangle 1" width="12.225" height="3.131" rx="1.565" transform="matrix(0.94, -0.342, 0.342, 0.94, 12.221, 14.906)" fill="#fff"/>
      <rect id="Rectangle_2" data-name="Rectangle 2" width="11.371" height="3.131" rx="1.565" transform="translate(17.612 27.612) rotate(-43)" fill="#fff"/>
      <rect id="Rectangle_3" data-name="Rectangle 3" width="11.967" height="3.381" rx="1.69" transform="translate(26.532 34.682) rotate(-54.975)" fill="#fff"/>
      <rect id="Rectangle_4" data-name="Rectangle 4" width="11.371" height="2.751" rx="1.376" transform="translate(38.846 39.925) rotate(-75.992)" fill="#fff"/>
      <path id="Path_2" data-name="Path 2" d="M12.141,0a.3.3,0,0,1,.3.3V2.833a.3.3,0,0,1-.3.3H.213C.048,3.129,0,3.056,0,3.056L6.506.242Z" transform="translate(12.226 0) rotate(14)" fill="#fff"/>
    </g>
    <path id="Path_3" data-name="Path 3" d="M25.595,31.9l.969,23.743a55.142,55.142,0,0,1-8.077,1.018C8.277,56.661,0,50.053,0,41.9c0-1.094.066-2.664.181-3.663s.368-2.21.368-2.21Z" transform="translate(25.745 -31.9)" fill="#fff"/>
    <path id="Path_4" data-name="Path 4" d="M5.634,0c3.206,0,5.593,4.239,5.593,4.239L0,4.3S2.428,0,5.634,0Z" transform="matrix(0.695, -0.719, 0.719, 0.695, 33.079, 8.248)" fill="#64bb4a"/>
    <path id="Path_5" data-name="Path 5" d="M2.46,0,6.92,5.84a29.97,29.97,0,0,1-3.553,5.4A11.591,11.591,0,0,1,0,13.6Z" transform="translate(49.517 2.871) rotate(35.025)" fill="#64bb4a"/>
  </g>
  <text id="enersun" transform="translate(80.349 37)" font-size="42" font-family="PeinaudMedium, Peinaud"><tspan x="0" y="0">enersun</tspan></text>
</svg>
